v 0.0000 0.0500 1.6000
v -0.7500 0.0000 -0.7500
v 0.7500 0.0000 -0.7500
v 0.0000 0.4200 -0.1000
v 0.0000 -0.3200 -0.2000
v -1.2000 0.0500 -0.1500
v 1.2000 0.0500 -0.1500
v 0.0000 0.1800 -1.2500
v -0.3000 0.0800 -1.0500
v 0.3000 0.0800 -1.0500
v 0.0000 0.7200 -0.5500
v -0.1800 0.4300 -0.4200
v 0.1800 0.4300 -0.4200
vn 0.59040 -0.78865 -0.17165
vn -0.59040 -0.78865 -0.17165
vn 0.49230 0.85260 -0.17526
vn -0.49230 0.85260 -0.17526
vn 0.06977 0.90066 0.42889
vn -0.06977 0.90066 0.42889
vn 0.34794 -0.91774 0.19153
vn -0.34794 -0.91774 0.19153
vn 0.27209 -0.92040 0.28077
vn -0.27209 -0.92040 0.28077
vn 0.29705 0.94392 0.14413
vn -0.29705 0.94392 0.14413
vn 0.00000 0.89443 0.44721
vn 0.41978 -0.88849 0.18542
vn -0.41978 -0.88849 0.18542
vn 0.00000 0.40906 0.91251
vn -0.68487 -0.60628 -0.40419
vn 0.68487 -0.60628 -0.40419
vn 0.68844 -0.60098 -0.40603
vn -0.68844 -0.60098 -0.40603
f 1//1 2//1 4//1
f 1//2 4//2 3//2
f 1//3 5//3 2//3
f 1//4 3//4 5//4
f 2//5 5//5 8//5
f 5//6 3//6 8//6
f 2//7 8//7 4//7
f 4//8 8//8 3//8
f 6//9 2//9 4//9
f 3//10 7//10 4//10
f 2//11 6//11 5//11
f 7//12 3//12 5//12
f 8//13 9//13 10//13
f 8//14 4//14 9//14
f 8//15 10//15 4//15
f 11//16 12//16 13//16
f 11//17 13//17 4//17
f 11//18 4//18 12//18
f 12//19 4//19 2//19
f 13//20 3//20 4//20